# xmcd CD database file
#
# Track frame offsets:
#	150
#	12605
#	24419
#	38186
#	51505
#	64533
#	78263
#	92853
#	108439
#	122445
#	134724
#	150186
#	162916
#	176744
#	190232
#	204368
#	218261
#	244671
#	256794
#
# Disc length: 3771 seconds
#
# Revision: 1
# Processed by: cddbd v1.5.2PL0 Copyright (c) Steve Scherf et al.
# Submitted via: CDex 1.70beta2
#
DISCID=f60eb913
DTITLE=Benny Carter - Giants of Jazz (2)
DYEAR=1900
DGENRE=Jazz
TTITLE0=Twelve Bar Stampede: Leonard Feather’s All-Star Jam Band 
TTITLE1=Men of Harlem: Leonard Feather’s All-Star Jam Band 
TTITLE2=Melancholy Lullaby: Benny Carter and His Orchestra
TTITLE3=Riff Romp: Benny Carter and His Orchestra
TTITLE4=More than You Know: Benny Carter and His Orchestra
TTITLE5=Sleep: Benny Carter and His Orchestra
TTITLE6=Fish Fry: Benny Carter and His Orchestra 
TTITLE7=Slow Freight: Benny Carter and His Orchestra 
TTITLE8=O.K. for Baby: Benny Carter and His Orchestra
TTITLE9=Smack: The Chocolate Dandies
TTITLE10=All of Me: Benny Carter and His Orchestra 
TTITLE11=Sunday: Benny Carter and His Orchestra
TTITLE12=Ill Wind: Benny Carter and His Orchestra
TTITLE13=Back Bay Boogie: Benny Carter and His Orchestra
TTITLE14=I Surrender Dear: Benny Carter and His Orchestra 
TTITLE15=Cadillac Slim: Benny Carter and His Chocolate Dandies
TTITLE16=Blues in B-Flat: Art Tatum/Benny Carter/Louis Bellson
TTITLE17=I Can’t Get Started: Jazz at the Philharmonic
TTITLE18=Three Little Words: The Benny Carter Four
EXTD=
EXTT0=
EXTT1=
EXTT2=
EXTT3=
EXTT4=
EXTT5=
EXTT6=
EXTT7=
EXTT8=
EXTT9=
EXTT10=
EXTT11=
EXTT12=
EXTT13=
EXTT14=
EXTT15=
EXTT16=
EXTT17=
EXTT18=
PLAYORDER=
